:SAMPLES-PER-SECOND 30
:FULLY-SPECIFIED
:DEGREES
60
root  16.7907 38.6682 6.26815 85.8417 -86.8336 -92.8128
RightUpLeg  4.09918 -10.2509 0.742869
RightLeg  18.9923 3.87705 1.5288
RightFoot  -15.4502 -0.152317 -1.34416
RightToes  2.96859e-009 0 -3.6325e-017
Spine  12.9727 0.702098 14.2694
Spine1  8.61086 4.15858 -7.84088
HEad  -3.93886 2.97715 -5.45705
LeftShoulder1  -0.560273 5.09239 -29.1175
LeftArm  -11.6523 16.8237 -43.0852
LeftForeArm  30.4856 -7.40317 -4.70821
LeftHand  -0.0285135 5.2411 -1.99259
RightShoulder  -0.599299 -5.32352 26.1935
RightArm  12.7581 16.5165 55.9975
RightForeArm  17.2549 7.41354 7.00312
RightHand  -0.364366 1.47291 -6.28525
LeftUpLeg  -16.5808 5.08926 1.95964
LeftLeg  2.77579 4.39227 -1.3442
LeftFoot  1.3481 0.786725 -7.12991
LeftToes  3.24686e-010 -7.02549e-012 1.39809e-011
61
root  17.589 38.9522 6.51211 70.591 -87.5621 -77.1612
RightUpLeg  3.54023 -9.92829 -0.406533
RightLeg  16.5234 3.28815 1.62662
RightFoot  -13.1702 -0.104647 -0.944649
RightToes  2.96859e-009 0 -3.6325e-017
Spine  13.0192 0.692866 14.0741
Spine1  8.20314 4.23353 -8.27215
HEad  -3.74765 1.4459 -5.14079
LeftShoulder1  -0.563857 5.10575 -29.0126
LeftArm  -11.3142 14.5598 -42.8225
LeftForeArm  30.9606 -8.54075 -4.95492
LeftHand  -0.0295034 5.33359 -2.22085
RightShoulder  -0.556191 -5.21068 25.8201
RightArm  11.096 13.9207 55.3464
RightForeArm  15.7716 6.51704 6.41371
RightHand  -0.25142 0.932977 -4.74443
LeftUpLeg  -16.3844 6.49741 1.57749
LeftLeg  7.48994 4.04505 -0.602725
LeftFoot  0.0748238 0.506295 -5.0787
LeftToes  3.24686e-010 -7.02549e-012 1.39809e-011
62
root  18.2979 39.1366 6.80321 48.5236 -87.9891 -54.612
RightUpLeg  2.86495 -9.4969 -1.54754
RightLeg  14.5111 2.45246 1.62295
RightFoot  -11.6696 -0.0790943 -0.132983
RightToes  2.96859e-009 0 -3.6325e-017
Spine  12.3179 0.71049 14.01
Spine1  8.52491 4.33044 -8.68188
HEad  -4.12866 0.392045 -5.01235
LeftShoulder1  -0.48547 4.90936 -28.364
LeftArm  -11.1708 13.2215 -43.2916
LeftForeArm  29.757 -10.6706 -4.87201
LeftHand  0.00745804 3.61928 -1.93825
RightShoulder  -0.585594 -5.30287 25.8047
RightArm  11.0565 11.4855 54.481
RightForeArm  15.0934 6.38014 6.43833
RightHand  -0.245526 0.623674 -4.82711
LeftUpLeg  -15.9598 7.77295 1.4492
LeftLeg  12.578 2.44162 0.447572
LeftFoot  -1.52377 0.367876 -4.17805
LeftToes  3.24686e-010 -7.02549e-012 1.39809e-011
63
root  18.9716 39.2204 7.13495 27.0384 -87.9279 -32.6657
RightUpLeg  1.79314 -9.52905 -2.54688
RightLeg  13.5839 2.13901 1.63744
RightFoot  -10.7231 -0.0772892 0.818393
RightToes  2.96859e-009 0 -3.6325e-017
Spine  11.9556 0.533678 13.7128
Spine1  8.29694 4.06957 -8.51491
HEad  -4.87834 -0.189935 -4.95681
LeftShoulder1  -0.47335 4.87423 -28.3521
LeftArm  -10.1657 12.7806 -43.4569
LeftForeArm  26.7696 -14.1589 -4.48885
LeftHand  0.00604814 2.95436 -1.08543
RightShoulder  -0.549908 -5.19494 25.7451
RightArm  12.7442 9.32981 53.1851
RightForeArm  16.295 6.79298 7.07021
RightHand  -0.264232 1.1012 -4.84878
LeftUpLeg  -15.1247 6.1976 2.55097
LeftLeg  17.5489 1.67569 0.97511
LeftFoot  -3.43755 0.250417 -3.31164
LeftToes  3.24686e-010 -7.02549e-012 1.39809e-011
64
root  19.6082 39.2483 7.48977 17.5034 -87.434 -22.8087
RightUpLeg  0.741499 -9.63646 -3.18804
RightLeg  13.1421 1.8691 1.62563
RightFoot  -10.0505 -0.0896226 1.94223
RightToes  2.96859e-009 0 -3.6325e-017
Spine  11.5364 0.306248 13.4142
Spine1  8.30199 3.65195 -7.78572
HEad  -5.24464 -0.379023 -5.20341
LeftShoulder1  -0.534218 5.02472 -28.9538
LeftArm  -7.75253 12.4763 -43.2521
LeftForeArm  23.4883 -18.5563 -4.06561
LeftHand  -0.0100015 2.75312 -0.192445
RightShoulder  -0.558778 -5.21434 25.8941
RightArm  15.2237 7.39494 51.4661
RightForeArm  18.0483 7.74074 7.79395
RightHand  -0.253992 0.973645 -4.74709
LeftUpLeg  -13.6174 4.02363 4.45906
LeftLeg  21.6852 1.55554 1.00368
LeftFoot  -5.31421 0.163643 -2.54044
LeftToes  3.24686e-010 -7.02549e-012 1.39809e-011
65
root  20.2447 39.1982 7.87294 15.3125 -86.6107 -20.2463
RightUpLeg  -0.684323 -9.73013 -3.51517
RightLeg  13.38 1.30217 1.47646
RightFoot  -9.88511 -0.106178 3.09537
RightToes  2.96859e-009 0 -3.6325e-017
Spine  11.0611 0.0169308 13.3399
Spine1  8.30491 3.23537 -7.24302
HEad  -5.76298 -0.467634 -5.3268
LeftShoulder1  -0.58122 5.15711 -28.9811
LeftArm  -7.78678 12.1211 -43.7228
LeftForeArm  22.6398 -22.2589 -3.75675
LeftHand  -0.0336359 2.71306 0.963005
RightShoulder  -0.626806 -5.39701 26.397
RightArm  17.6466 5.37914 49.4657
RightForeArm  18.4729 8.93554 8.19949
RightHand  -0.230345 0.639642 -4.52245
LeftUpLeg  -11.9011 2.4188 6.51937
LeftLeg  25.0538 1.47875 1.0906
LeftFoot  -7.15605 0.142538 -2.70892
LeftToes  3.24686e-010 -7.02549e-012 1.39809e-011
66
root  20.8655 39.1341 8.2774 14.4051 -85.6723 -18.9798
RightUpLeg  -1.97845 -9.9891 -3.9166
RightLeg  13.5288 0.810482 1.43388
RightFoot  -9.80905 -0.126716 4.48448
RightToes  2.96859e-009 0 -3.6325e-017
Spine  10.634 -0.267804 12.8309
Spine1  8.10789 2.67707 -6.41738
HEad  -5.92208 -0.833796 -5.39207
LeftShoulder1  -0.576153 5.15246 -28.769
LeftArm  -9.20665 12.0138 -44.3469
LeftForeArm  24.499 -25.3484 -4.10823
LeftHand  -0.0301909 1.20312 0.652896
RightShoulder  -0.654168 -5.45952 26.7596
RightArm  18.355 3.19987 47.5095
RightForeArm  18.5421 9.47497 8.12915
RightHand  -0.212796 0.720264 -4.13534
LeftUpLeg  -9.7115 1.18311 8.36777
LeftLeg  27.1732 1.89044 1.38386
LeftFoot  -8.31746 0.115175 -2.47713
LeftToes  3.24686e-010 -7.02549e-012 1.39809e-011
